<?xml version="1.0" encoding="utf-8"?>
<!-- Generator: Adobe Illustrator 24.1.3, SVG Export Plug-In . SVG Version: 6.00 Build 0)  -->
<svg version="1.1" id="Layer_1" xmlns="http://www.w3.org/2000/svg" xmlns:xlink="http://www.w3.org/1999/xlink" x="0px" y="0px"
	 viewBox="0 0 327.9 104.6" style="enable-background:new 0 0 327.9 104.6;" xml:space="preserve">
<style type="text/css">
	.st0{fill:#D61F38;}
</style>
<g>
	<path class="st0" d="M223.2,73.9c0,0.9,0,1.5,0,2.1c0,0.4-0.2,0.7-0.6,0.7c-3.2,0-6.3,0-9.5,0c-0.5,0-0.7-0.2-0.7-0.7
		c0-0.3,0-0.5,0-0.8c0-14,0-28,0-41.9c0-0.2,0-0.5,0-0.7c0-0.5,0.2-0.7,0.7-0.7c3.2,0,6.3,0,9.5,0c0.7,0,0.7,0.5,0.7,1
		c0,4.5,0,8.9,0,13.4c0,0.3,0,0.6,0,0.9c0.3,0.1,0.4-0.2,0.5-0.3c4.1-3.9,11.3-3.9,15.9-1.1c3.9,2.5,6.3,6,7.2,10.5
		c1,5.1,0.5,9.9-2.2,14.4c-3.5,5.6-9.9,8.2-16.3,6.5C226.4,76.5,224.7,75.5,223.2,73.9z M236.4,60.6c0-4.6-3.2-7.4-7.7-6.8
		c-2.9,0.4-5,2.5-5.4,5.9c-0.4,3.6,1.4,6.7,4.7,7.5C232.6,68.4,236.4,65.4,236.4,60.6z"/>
	<path class="st0" d="M147.7,74.1c0,0.7,0,1.3,0,1.9c0,0.5-0.2,0.7-0.7,0.7c-3.2,0-6.3,0-9.5,0c-0.4,0-0.7-0.2-0.7-0.6
		c0-0.2,0-0.5,0-0.7c0-14,0-28.1,0-42.1c0-0.2,0-0.5,0-0.7c0-0.4,0.2-0.7,0.6-0.7c3.2,0,6.4,0,9.6,0c0.7,0,0.6,0.5,0.6,0.9
		c0,2.4,0,4.8,0,7.2c0,2.1,0,4.1,0,6.2c0,0.3-0.1,0.6,0.1,0.9c0.3-0.3,0.6-0.6,1-0.9c2.5-2,5.5-2.7,8.7-2.5
		c8.1,0.4,13.6,7.5,14.1,14.9c0.3,4-0.2,7.8-2.2,11.3c-3.5,6.4-10.8,9.3-17.5,7c-0.8-0.3-1.5-0.6-2.2-1.1
		C149.1,75.2,148.5,74.6,147.7,74.1z M147.7,60c0,2.8,0.6,4.6,2.3,6c3.2,2.7,9.9,1.8,10.8-4.2c0.7-5.1-2.7-8.6-7.7-8
		C149.9,54.2,147.7,56.9,147.7,60z"/>
	<path class="st0" d="M27.4,66.9c2,0,4,0,6,0c1.3,0,1.3,0,0.8-1.2c-1.3-3.5-2.6-7-3.9-10.4c-0.2-0.6-0.2-0.9,0.4-1.2
		c3.1-1.6,4.5-4.8,3.6-8.2c-0.9-3.4-3.6-5.5-7.3-5.4c-3.2,0.1-6,2.5-6.7,5.7c-0.3,1.4-0.5,1.6-2,1.6c-2,0-4.1,0-6.1,0
		c-1.4,0-1.7-0.2-2-1.6c-0.8-4.9,1-8.9,4.7-12c6.7-5.7,17.2-6,24.2-0.6c3.3,2.5,5.3,5.9,5.6,10.1c0.2,3.4-1,6.4-3.3,8.9
		c-0.5,0.5-1,1-1.5,1.5c-0.5,0.4-0.4,0.5,0,0.9c1.4,1.1,2.6,2.4,3.5,4c2.3,4.3,1.7,8.4-1.2,12.2c-2.9,3.7-6.9,5.5-11.4,6.2
		c-4.3,0.6-8.5,0.1-12.4-1.8c-3.4-1.6-6.1-4-7.5-7.7c-0.4-1.1-0.6-2.3-0.7-3.5c-0.1-1.1,0.5-1.7,1.6-1.8c2.9,0,5.8,0,8.8,0
		c1,0,1.3,0.5,0.9,1.4c-0.3,0.8-0.5,1.5-0.9,2.3c-0.3,0.6,0,0.7,0.5,0.7C23.2,66.9,25.3,66.9,27.4,66.9z"/>
	<path class="st0" d="M70.8,47.2c0-0.8,0-1.4,0-2c0-0.5,0.2-0.7,0.7-0.7c3.2,0,6.3,0,9.5,0c0.5,0,0.7,0.2,0.7,0.7c0,0.2,0,0.4,0,0.7
		c0,9.8,0,19.6,0,29.4c0,1.4,0,1.4-1.4,1.4c-2.7,0-5.4,0-8.1,0c-1.3,0-1.3,0-1.3-1.4c0-0.4,0-0.8,0-1.3c-0.6,0.5-1,0.9-1.5,1.3
		c-3.6,2.6-7.6,2.9-11.7,1.7c-4.8-1.4-8-4.7-9.6-9.3c-2.3-6.4-1.9-12.7,2.4-18.3c3.8-4.9,8.9-6.5,14.9-5.2
		C67.4,44.5,69.1,45.6,70.8,47.2z M57.6,60.5c0,2.1,0.6,4.1,2.3,5.4c2.2,1.7,4.7,1.9,7.2,0.8c2.4-1,3.5-3.1,3.7-5.6
		c0.4-4.8-3.1-8.1-7.8-7.4C59.7,54.3,57.6,56.9,57.6,60.5z"/>
	<path class="st0" d="M198.3,47.2c0-0.7,0-1.3,0-1.8c0-0.5,0.2-0.8,0.8-0.8c3.1,0,6.2,0,9.3,0c0.5,0,0.8,0.2,0.8,0.7
		c0,0.2,0,0.4,0,0.6c0,9.8,0,19.6,0,29.4c0,1.4,0,1.4-1.4,1.4c-2.8,0-5.6,0-8.4,0c-0.7,0-1.1-0.2-1-1c0-0.5,0-1,0-1.5
		c-0.3-0.1-0.4,0.1-0.5,0.2c-2,2-4.5,2.9-7.3,3.1c-9.4,0.7-14.8-6.6-15.9-13c-0.7-4.1-0.5-8.2,1.3-12c2.6-5.4,6.9-8.7,13-8.9
		c3.3-0.1,6.4,0.7,8.9,3.1C197.8,46.8,198,46.9,198.3,47.2z M185,60.5c0,2.1,0.6,4.1,2.3,5.4c2.2,1.7,4.7,1.9,7.2,0.9
		c2.4-1,3.5-3.1,3.7-5.7c0.3-4.8-3-7.9-7.7-7.3C187.2,54.2,185.1,56.9,185,60.5z"/>
	<path class="st0" d="M273.7,47.1c0-0.7,0-1.3,0-1.9c0-0.5,0.2-0.7,0.7-0.7c3.1,0,6.3,0,9.4,0c0.5,0,0.7,0.2,0.7,0.7
		c0,0.2,0,0.3,0,0.5c0,9.9,0,19.8,0,29.7c0,1.2,0,1.2-1.2,1.2c-2.8,0-5.7,0-8.5,0c-1.1,0-1.1-0.1-1.1-1.2c0-0.4,0-0.8,0-1.2
		c-0.2-0.1-0.3-0.1-0.4,0c-4.3,3.8-9.3,4.1-14.3,1.9c-5.2-2.2-8-6.6-9-12.2c-0.7-4-0.3-7.8,1.3-11.5c2.4-5.5,7.7-9.1,13.7-9
		c3.2,0,6,0.9,8.3,3.2C273.4,46.9,273.5,46.9,273.7,47.1z M273.7,60.4c0-1.5-0.4-3.1-1.5-4.4c-2-2.3-4.5-2.7-7.3-1.9
		c-2.7,0.8-4,2.7-4.3,5.5c-0.6,5.2,2.9,8.6,8,7.8C271.8,66.7,273.7,64.1,273.7,60.4z"/>
	<path class="st0" d="M122.6,47c0.2-0.6,0.1-1.2,0.1-1.7c0-0.5,0.2-0.8,0.8-0.8c3.1,0,6.2,0,9.3,0c0.5,0,0.8,0.2,0.7,0.7
		c0,0.2,0,0.3,0,0.5c0,9.9,0,19.8,0,29.7c0,1.2,0,1.2-1.2,1.2c-2.7,0-5.5,0-8.2,0c-1.4,0-1.4,0-1.4-1.5c0-0.3,0.1-0.6-0.1-0.9
		c-0.2,0-0.3,0.1-0.4,0.2c-4.2,4.2-12.7,4.1-17.6-0.2C101,71,99.1,67,98.7,62.2c-0.3-4.2,0.4-8.2,2.7-11.7c2.9-4.4,7-6.9,12.4-6.9
		c3.2,0,6.1,0.9,8.5,3.2C122.4,46.9,122.4,46.9,122.6,47z M122.7,60.6c0.2-4.3-3-7.6-8.1-6.7c-2.4,0.4-4,1.9-4.7,4.2
		c-0.8,2.6-0.6,5.1,1.2,7.3c1.8,2,4.9,2.7,7.6,1.6C121.3,66,122.7,63.7,122.7,60.6z"/>
	<path class="st0" d="M298.8,63.7c0,1.4,0,2.8,0,4.2c0,2.6,0,5.2,0,7.8c0,0.8-0.2,1.1-1,1.1c-2.9,0-5.9,0-8.8,0c-0.8,0-1-0.3-1-1
		c0-14.3,0-28.6,0-42.9c0-0.7,0.2-1,1-1c2.9,0,5.8,0,8.8,0c1.1,0,1.1,0,1.1,1.1c0,7.8,0,15.6,0,23.4c0,0.3,0,0.6,0,0.9
		c0.1,0,0.1,0,0.2,0c0.5-0.9,1.1-1.7,1.6-2.6c1.9-3.1,3.9-6.3,5.8-9.4c0.3-0.5,0.6-0.7,1.2-0.7c3.6,0,7.1,0,10.7,0
		c0.2,0,0.6-0.1,0.7,0.1c0.2,0.3-0.1,0.5-0.3,0.7c-3.2,4.8-6.5,9.6-9.7,14.4c-0.4,0.6-0.3,1,0,1.5c3.4,4.8,6.8,9.6,10.1,14.5
		c0.1,0.2,0.4,0.4,0.3,0.6c-0.1,0.3-0.5,0.2-0.7,0.2c-3.4,0-6.9,0-10.3,0c-0.6,0-0.9-0.3-1.2-0.7c-2.6-3.9-5.2-7.7-7.8-11.6
		c-0.1-0.2-0.3-0.4-0.5-0.7C298.9,63.6,298.8,63.7,298.8,63.7z"/>
	<path class="st0" d="M95.7,53.2c0,7.4,0,14.8,0,22.2c0,1.2,0,1.2-1.2,1.2c-2.8,0-5.7,0-8.5,0c-1.1,0-1.1-0.1-1.1-1.1
		c0-14.9,0-29.8,0-44.6c0-1,0.1-1.1,1.1-1.1c2.9,0,5.7,0,8.6,0c1.1,0,1.1,0,1.1,1.1C95.7,38.4,95.7,45.8,95.7,53.2z"/>
</g>
</svg>
